<?xml version="1.0" standalone="no"?>
<!DOCTYPE svg PUBLIC "-//W3C//DTD SVG 1.1//EN" "http://www.w3.org/Graphics/SVG/1.1/DTD/svg11.dtd" >
<!--
2013-9-30: Created.
-->
<svg>
<metadata>
Created by iconfont
</metadata>
<defs>

<font id="iconfont" horiz-adv-x="1024" >
  <font-face
    font-family="iconfont"
    font-weight="500"
    font-stretch="normal"
    units-per-em="1024"
    ascent="896"
    descent="-128"
  />
    <missing-glyph />
    
    <glyph glyph-name="qianbi1" unicode="&#59286;" d="M845.56035129 658.15361257l-60.9682873 60.83250045c-16.8375671 16.76967367-44.1307202 16.76967367-60.96828729 0L632.10345236 627.73736233l122.00446799-121.66500092 91.45243094 91.24875069c16.8375671 16.8375671 16.8375671 44.06282678-2e-8 60.83250047zM164.38571167 39.848275859999944l162.60473059 40.46447576L204.98597426 201.97775252999998 164.38571167 39.848275859999944z m71.28808647 192.5457269l122.00446799-121.66500093 365.94551057 364.92710935L601.61930871 597.3211121100001 235.67379814 232.39400276000003z"  horiz-adv-x="1024" />

    
    <glyph glyph-name="quxian1" unicode="&#58917;" d="M900.36148148 352.54272000000003c0 19.41807408-19.41807408 38.83614815-38.83614815 38.83614815-23.30168889 0-38.83614815-19.41807408-38.83614815-38.83614815 0-27.18530369-7.76722963-104.98705383-42.71976296-143.82320197-19.41807408-19.41807408-42.71976295-27.1853037-73.91813531-27.18530372-54.37060741 0-93.33620939 147.7068168-124.40512789 252.69387063C542.68055703 585.81851653 503.84440889 725.7581037 402.74096987 725.7581037c-143.82320197 0-209.97410765-221.6249521-252.69387062-365.44815408-7.76722963-31.06891852-15.53445925-58.25422222-23.30168888-73.91813531-7.76722963-19.41807408 3.88361479-42.71976297 23.30168888-50.48699258s42.71976297 3.88361479 50.4869926 23.30168888 15.53445925 46.60337778 27.1853037 81.68536494c27.1853037 104.98705383 89.45259457 307.06447803 174.8921205 307.06447801 42.71976297 0 81.68536494-139.93958717 108.87066864-233.27579653 42.71976297-151.59043161 85.56897978-310.94809283 198.32326321-310.94809284 50.4869926 0 93.33620939 15.53445925 124.40512791 50.48699261C904.24509629 228.1375921 900.36148148 348.65910518 900.36148148 352.54272000000003z m0 0"  horiz-adv-x="1024" />

    
    <glyph glyph-name="quxian" unicode="&#58956;" d="M827.52196704 57.440407739999955c-1.36088964 0-2.73358438 0.08178855-4.1189263 0.25042402-18.49090073 2.2512865-31.65460043 19.06510474-29.40415769 37.55600545 21.48502671 176.49324371 23.18909024 313.46671975 5.064129 407.11179091-14.2724795 73.73763116-40.15130877 118.91934119-76.91809982 134.29132497-63.47109128 26.53819436-174.77063086-28.77767661-313.39757839-155.75358608-112.16379666-102.73874909-202.6680282-216.32330127-203.56938639-217.45822001-11.57936792-14.58951443-32.79542129-17.03051614-47.38493573-5.45030447-14.58951443 11.57936792-17.03051614 32.79542129-5.45030447 47.38493573 3.81453855 4.80611618 94.76987063 118.94548013 210.84432824 225.26520721 69.14399497 63.33365314 132.87394281 110.58536701 189.41748158 140.44399778 76.84052674 40.57542746 142.63626132 49.92964783 195.56003512 27.80211868 29.53822329-12.34919009 54.44571094-34.26339468 74.03021383-65.13383908 19.23458395-30.31732013 33.73303519-70.21061609 43.09315768-118.57279478 9.53971929-49.28798914 14.1308259-109.24640002 13.64431174-178.20995525-0.50759307-72.0023703-6.55402506-156.07146479-17.97234549-249.87168045-2.08349395-17.10640174-16.63169266-29.6545817-33.43792291-29.65542463z"  horiz-adv-x="1024" />

    
    <glyph glyph-name="zhexian" unicode="&#58893;" d="M905.48494466 538.58494466c11 0 21.8-5 28.8-14.6 11.5-15.9 8.1-38.1-7.8-49.7l-271.7-197.89999999c-13.2-9.70000001-31.5-9-44 1.69999999l-204.8 175-231.80000001-265.3c-12.90000001-14.8-35.29999999-16.40000001-50.19999999-3.4-14.8 12.90000001-16.3 35.4-3.4 50.1l255 291.9c12.8 14.7 35 16.29999999 49.90000001 3.7L635.58494466 350.38494464999997l249 181.40000002c6.4 4.5 13.7 6.8 20.9 6.79999999z"  horiz-adv-x="1024" />

    
    <glyph glyph-name="qianjin" unicode="&#58964;" d="M532.48 518.826667V668.444444a11.377778 11.377778 0 0 0 19.342222 7.964445l312.888889-284.444445a11.377778 11.377778 0 0 0 0-17.066666l-312.888889-284.444445a11.377778 11.377778 0 0 0-19.342222 7.964445v139.946666a498.346667 498.346667 0 0 1-373.76-107.52 11.377778 11.377778 0 0 0-18.204444 11.377778c21.617778 95.573333 108.657778 376.604444 391.964444 376.604445z"  horiz-adv-x="1024" />

    
    <glyph glyph-name="houtui" unicode="&#58965;" d="M476.16 518.826667V668.444444A11.377778 11.377778 0 0 1 455.111111 679.253333l-312.888889-284.444444a11.377778 11.377778 0 0 1 0-17.066667l312.888889-284.444444a11.377778 11.377778 0 0 1 19.342222 7.964444v137.102222a498.346667 498.346667 0 0 0 373.76-107.52 11.377778 11.377778 0 0 1 18.204445 11.377778c-19.911111 95.573333-106.951111 376.604444-390.257778 376.604445z"  horiz-adv-x="1024" />

    
    <glyph glyph-name="xiangxiajiantou" unicode="&#58966;" d="M512 184.32h-16.497778l-15.928889 13.084444L159.288889 518.257778l56.32 56.32L512 278.186667l296.391111 296.391111 56.32-56.32-332.231111-332.231111-20.48-1.706667z"  horiz-adv-x="1024" />

    
    <glyph glyph-name="jiaohuan_huaban1" unicode="&#58969;" d="M773.688889 259.982222h-86.471111V416.995556a142.222222 142.222222 0 0 1-142.222222 142.222222H392.533333v91.022222A22.755556 22.755556 0 0 1 353.848889 668.444444l-119.466667-119.466666a22.186667 22.186667 0 0 1 0-31.857778l119.466667-119.466667a22.755556 22.755556 0 0 1 38.684444 15.928889V502.328889h152.462223a85.333333 85.333333 0 0 0 85.333333-85.333333v-157.013334H534.755556a22.755556 22.755556 0 0 1-15.928889-39.253333l119.466666-119.466667a22.755556 22.755556 0 0 1 31.857778 0l119.466667 119.466667a22.755556 22.755556 0 0 1-15.928889 39.253333z"  horiz-adv-x="1024" />

    
    <glyph glyph-name="lajixiang_huaban1" unicode="&#58971;" d="M853.333333 641.706667h-170.666666v50.631111a62.577778 62.577778 0 0 1-62.577778 62.577778H402.204444A62.577778 62.577778 0 0 1 341.333333 692.337778v-50.631111H170.666667v-56.888889h56.888889v-512a62.577778 62.577778 0 0 1 62.577777-62.577778h443.733334a62.577778 62.577778 0 0 1 62.577777 62.577778v512h56.888889z m-455.111111 50.631111a5.688889 5.688889 0 0 0 5.688889 5.688889h219.591111a5.688889 5.688889 0 0 0 5.688889-5.688889v-50.631111H398.222222z m341.333334-616.675556a5.12 5.12 0 0 0-5.688889-5.688889H290.133333a5.12 5.12 0 0 0-5.688889 5.688889V584.817778h455.111112zM398.222222 464.213333h56.888889v-274.773333H398.222222zM568.888889 464.213333h56.888889v-274.773333h-56.888889z"  horiz-adv-x="1024" />

    
    <glyph glyph-name="bofang_huaban1" unicode="&#58972;" d="M775.395556 433.493333L305.493333 704.284444a56.888889 56.888889 0 0 1-85.333333-49.493333v-541.582222a56.888889 56.888889 0 0 1 85.333333-49.493333l469.902223 270.791111a56.888889 56.888889 0 0 1 0 98.986666z"  horiz-adv-x="1024" />

    
    <glyph glyph-name="zuoyoufanzhuan_huaban1" unicode="&#58975;" d="M140.515556 42.666667h341.333333V725.333333h-39.253333L140.515556 83.057778V42.666667zM599.04 554.666667l213.902222-455.111111h-213.902222V554.666667m-17.635556 170.666666h-39.253333v-682.666666h341.333333v40.391111L581.404444 725.333333z"  horiz-adv-x="1024" />

    
    <glyph glyph-name="chuizhifanzhuan_huaban1" unicode="&#58976;" d="M170.666667 755.484444v-341.333333h682.666666v39.253333L211.057778 755.484444H170.666667zM682.666667 296.96l-455.111111-213.902222v213.902222h455.111111m170.666666 56.888889H170.666667v-341.333333h40.391111L853.333333 314.595556v39.253333z"  horiz-adv-x="1024" />

    
    <glyph glyph-name="yanjing_huaban1" unicode="&#58979;" d="M893.724444 408.462222C853.333333 474.453333 732.728889 649.671111 512 649.671111a440.32 440.32 0 0 1-384.568889-247.466667 40.96 40.96 0 0 1 0-36.408888 424.96 424.96 0 0 1 768.568889-7.395556 52.337778 52.337778 0 0 1-2.275556 50.062222zM512 186.595556A197.404444 197.404444 0 1 0 709.404444 384 197.973333 197.973333 0 0 0 512 186.595556zM512 384m-106.382222 0a106.382222 106.382222 0 1 1 212.764444 0 106.382222 106.382222 0 1 1-212.764444 0Z"  horiz-adv-x="1024" />

    
    <glyph glyph-name="biyan_huaban1" unicode="&#58980;" d="M127.431111 440.888889a40.96 40.96 0 0 1 0-36.408889A427.235556 427.235556 0 0 1 493.226667 156.444444L158.72 491.52a444.302222 444.302222 0 0 1-31.288889-50.631111zM893.724444 446.577778C853.333333 512 732.728889 687.217778 512 687.217778a401.066667 401.066667 0 0 1-223.573333-66.56L207.644444 701.44 143.36 637.155556l74.524444-74.524445 100.693334-102.4 233.244444-231.537778 60.871111-61.44 101.262223-101.262222 64.284444 64.284445-72.248889 72.248888a455.111111 455.111111 0 0 1 189.44 193.422223 52.337778 52.337778 0 0 1-1.706667 50.631111zM638.293333 270.222222l-64.853333 65.422222a105.813333 105.813333 0 1 1-147.911111 147.911112L360.675556 548.408889A197.404444 197.404444 0 1 0 638.293333 270.222222z"  horiz-adv-x="1024" />

    
    <glyph glyph-name="guanbi_huaban1" unicode="&#58986;" d="M794.737778 611.555556l-56.32 56.888888-223.573334-223.573333L291.84 668.444444l-56.888889-56.888888 223.573333-223.004445-223.573333-223.573333 56.888889-56.32 223.004444 223.573333 223.573334-223.573333 56.32 56.32-223.573334 223.573333L794.737778 611.555556z"  horiz-adv-x="1024" />

    
    <glyph glyph-name="gengduo_huaban1" unicode="&#58987;" d="M113.777778 497.777778h796.444444v-56.888889H113.777778zM113.777778 327.111111h796.444444v-56.888889H113.777778zM113.777778 156.444444h796.444444v-56.888888H113.777778zM113.777778 668.444444h796.444444v-56.888888H113.777778z"  horiz-adv-x="1024" />

    
    <glyph glyph-name="yuanquan_huaban1" unicode="&#58988;" d="M512 64a320 320 0 1 0 320 320 320 320 0 0 0-320-320z m0 554.666667a234.666667 234.666667 0 1 1 234.666667-234.666667A235.093333 235.093333 0 0 1 512 618.666667z"  horiz-adv-x="1024" />

    
    <glyph glyph-name="zhixian_huaban1" unicode="&#58989;" d="M197.333333 129.706667l568.746667 568.661333 60.330667-60.330667-568.746667-568.746666z"  horiz-adv-x="1024" />

    
    <glyph glyph-name="hengxiangwenzi_huaban1" unicode="&#58990;" d="M664.32 306.773333h95.573333l-209.92 411.306667h-75.946666l-209.92-411.306667h95.573333l35.413333 69.546667h233.813334z m-225.706667 154.88L512 605.013333l73.386667-143.36zM805.973333 198.826667l-90.453333 90.453333a17.066667 17.066667 0 0 1-29.013333-11.946667v-69.12H256v-42.666666h430.933333v-69.12a17.066667 17.066667 0 0 1 29.013334-11.946667l90.453333 90.453333a16.64 16.64 0 0 1-0.426667 23.893334z"  horiz-adv-x="1024" />

    
    <glyph glyph-name="shuxiangwenzi_huaban1" unicode="&#58991;" d="M746.24 163.84h96l-209.92 411.306667H554.666667l-208.64-411.306667h96l35.413333 69.546667h233.386667z m-225.28 154.88l73.386667 143.36 72.96-143.36zM277.333333 656.64L186.88 566.186667a17.066667 17.066667 0 0 1 11.946667-29.013334h69.12v-430.933333h42.666666V537.173333H379.733333a17.066667 17.066667 0 0 1 11.946667 29.013334L301.653333 656.64a17.066667 17.066667 0 0 1-24.32 0z"  horiz-adv-x="1024" />

    
    <glyph glyph-name="chehui_huaban1" unicode="&#58992;" d="M506.453333 642.56a273.493333 273.493333 0 0 1-155.733333-48.64v85.333333h-42.666667v-164.693333h165.546667v42.666667H372.053333a234.666667 234.666667 0 1 0 134.4-426.666667A235.52 235.52 0 0 0 282.026667 298.666667a21.76 21.76 0 0 1-26.026667 13.226666 21.333333 21.333333 0 0 1-14.08-26.453333 277.333333 277.333333 0 1 1 265.386667 357.12z"  horiz-adv-x="1024" />

    
    <glyph glyph-name="quxiao_huaban1" unicode="&#58993;" d="M512 682.666667a298.666667 298.666667 0 1 1 298.666667-298.666667 298.666667 298.666667 0 0 1-298.666667 298.666667z m0-42.666667a256 256 0 0 0 165.546667-61.013333l-361.386667-359.253334A253.013333 253.013333 0 0 0 256 384a256 256 0 0 0 256 256z m0-512a256 256 0 0 0-165.973333 61.44l361.813333 359.253333A256 256 0 0 0 512 128z"  horiz-adv-x="1024" />

    
    <glyph glyph-name="queding_huaban1" unicode="&#58994;" d="M413.013333 149.333333a29.866667 29.866667 0 0 0-20.906666 8.533334l-213.333334 213.333333a30.293333 30.293333 0 0 0 0 42.666667 29.44 29.44 0 0 0 42.666667 0l190.72-190.72 389.546667 386.986666a30.293333 30.293333 0 0 0 42.666666 0 30.72 30.72 0 0 0 0-42.666666l-409.6-409.6a29.866667 29.866667 0 0 0-21.76-8.533334z"  horiz-adv-x="1024" />

    
    <glyph glyph-name="yidong_huaban1" unicode="&#58996;" d="M216.746667 59.733333V712.96a34.133333 34.133333 0 0 0 56.32 26.026667L794.88 298.666667a34.133333 34.133333 0 0 0-22.186667-60.16h-306.346666l-190.293334-202.24a34.133333 34.133333 0 0 0-59.306666 23.466666z"  horiz-adv-x="1024" />

    
    <glyph glyph-name="xuanqu_huaban1" unicode="&#58997;" d="M385.28 725.333333h85.333333v-85.333333h-85.333333zM385.28 128h85.333333v-85.333333h-85.333333zM555.946667 128h85.333333v-85.333333h-85.333333zM170.666667 512h85.333333v-85.333333H170.666667zM726.613333 640H768v-42.666667h85.333333V725.333333h-126.72v-85.333333zM170.666667 341.333333h85.333333v-85.333333H170.666667zM256 597.333333V640h43.946667V725.333333H170.666667v-128h85.333333zM299.946667 128H256v42.666667H170.666667v-128h129.28v85.333333zM555.946667 725.333333h85.333333v-85.333333h-85.333333zM768 170.666667v-42.666667h-41.386667v-85.333333H853.333333v128h-85.333333zM768 341.333333h85.333333v-85.333333h-85.333333zM768 512h85.333333v-85.333333h-85.333333z"  horiz-adv-x="1024" />

    
    <glyph glyph-name="huabi_huaban1" unicode="&#58998;" d="M483.84 310.613333a99.84 99.84 0 0 1 66.56-26.453333 16.213333 16.213333 0 0 1 12.8 4.693333L840.96 554.666667a103.68 103.68 0 0 1-5.12 152.32 103.253333 103.253333 0 0 1-148.053333-13.653334l-228.693334-313.173333a17.493333 17.493333 0 0 1-2.986666-13.653333 103.253333 103.253333 0 0 1 27.733333-55.893334zM162.133333 160.853333a47.786667 47.786667 0 0 1 51.2 17.92c18.773333 27.306667 24.32 85.333333 64.853334 121.173334a142.506667 142.506667 0 0 0 111.786666 37.12 11.52 11.52 0 0 0 9.813334-8.96 116.053333 116.053333 0 0 1 39.253333-72.106667 243.2 243.2 0 0 1 81.066667-32.853333 10.666667 10.666667 0 0 0 8.96-10.666667c2.56-37.546667 0-179.2-186.88-173.226667C128 42.666667 143.36 167.68 162.133333 160.853333z"  horiz-adv-x="1024" />

    
    <glyph glyph-name="youqitong_huaban1" unicode="&#59000;" d="M869.973333 391.68l-347.733333 347.733333L469.333333 682.666667 414.293333 735.573333a28.16 28.16 0 0 1-40.106666-40.106666l55.466666-55.466667L170.666667 357.973333a53.333333 53.333333 0 0 1 0-74.666666l243.2-243.626667a55.466667 55.466667 0 0 1 38.4-15.786667 54.613333 54.613333 0 0 1 36.266666 14.506667l322.56 298.666667v-227.84h59.733334v282.026666z m-242.346666 130.56l-128 128 24.32 26.453333 282.453333-282.453333-573.866667-32 228.266667 246.186667 128-128a28.16 28.16 0 1 1 40.106667 40.106666z"  horiz-adv-x="1024" />

    
    <glyph glyph-name="xiguan_huaban1" unicode="&#59002;" d="M832.853333 704.853333a66.986667 66.986667 0 0 1-95.146666 0L673.706667 640 622.933333 692.053333a42.666667 42.666667 0 0 1-60.16 0 42.666667 42.666667 0 0 1 0-60.16l26.453334-26.453333-322.133334-322.133333L256 209.493333l-67.413333-65.28a59.306667 59.306667 0 1 1 85.333333-85.333333l65.28 65.28 73.386667 13.226667 321.706666 322.133333 26.88-26.453333a42.666667 42.666667 0 0 1 29.866667-12.373334 42.666667 42.666667 0 0 1 30.293333 12.373334 42.666667 42.666667 0 0 1 0 60.16L768 546.133333l63.573333 63.573334a66.986667 66.986667 0 0 1 1.28 95.146666z m-305.493333-389.12H360.106667l259.413333 259.413334 85.333333-85.333334z"  horiz-adv-x="1024" />

    
    <glyph glyph-name="juxinggongju_huaban1" unicode="&#59005;" d="M746.666667 554.666667v-341.333334h-469.333334V554.666667h469.333334m68.266666 85.333333H209.066667a17.066667 17.066667 0 0 1-17.066667-17.066667v-477.866666a17.066667 17.066667 0 0 1 17.066667-17.066667h605.866666a17.066667 17.066667 0 0 1 17.066667 17.066667V622.933333a17.066667 17.066667 0 0 1-17.066667 17.066667z"  horiz-adv-x="1024" />

    
    <glyph glyph-name="xialajiantou_huaban1" unicode="&#59006;" d="M928-25.173333h-128a17.066667 17.066667 0 0 0-11.946667 29.013333l128 128a17.066667 17.066667 0 0 0 29.013334-11.946667v-128a16.64 16.64 0 0 0-17.066667-17.066666z"  horiz-adv-x="1024" />

    
    <glyph glyph-name="wenzi_huaban1" unicode="&#59007;" d="M213.333333 686.08v-128h85.333334v42.666667h170.666666v-433.493334H384.853333v-85.333333h256v85.333333H554.666667V600.746667h170.666666v-42.666667h85.333334v128H213.333333z"  horiz-adv-x="1024" />

    
    <glyph glyph-name="xuanzhuan_huaban1" unicode="&#59008;" d="M421.12 305.493333L362.666667 247.466667a329.386667 329.386667 0 0 0 23.466666 409.173333 8.533333 8.533333 0 0 1-9.813333 13.226667 310.186667 310.186667 0 0 1-83.2-492.373334L241.92 128a17.066667 17.066667 0 0 1 11.946667-29.013333h179.2a17.066667 17.066667 0 0 1 17.066666 17.066666v179.2a17.066667 17.066667 0 0 1-29.013333 10.24zM602.88 462.506667L661.333333 520.533333a329.386667 329.386667 0 0 0-21.333333-409.173333 8.533333 8.533333 0 0 1 9.813333-13.226667 310.186667 310.186667 0 0 1 81.066667 492.373334L782.08 640a17.066667 17.066667 0 0 1-11.946667 29.013333h-179.2a17.066667 17.066667 0 0 1-17.066666-17.066666v-179.2a17.066667 17.066667 0 0 1 29.013333-10.24z"  horiz-adv-x="1024" />

    
    <glyph glyph-name="caijian_huaban1" unicode="&#59009;" d="M273.493333 727.893333v-125.866666H168.106667v-85.333334h105.386666v-248.32a102.826667 102.826667 0 0 1 102.4-102.4h246.186667v85.333334H375.893333a17.066667 17.066667 0 0 0-17.066666 17.066666V727.893333zM855.893333 251.306667h-105.386666V499.626667a102.826667 102.826667 0 0 1-102.826667 102.4H401.92v-85.333334h245.76a17.066667 17.066667 0 0 0 17.493333-17.066666v-459.52h85.333334v125.866666h105.386666z"  horiz-adv-x="1024" />

    
    <glyph glyph-name="fangdajing_huaban1" unicode="&#59010;" d="M823.893333 124.16l-162.56 162.56a267.093333 267.093333 0 1 1-64-57.6l166.4-165.12a42.666667 42.666667 0 0 1 60.16 0 42.666667 42.666667 0 0 1 0 60.16zM264.533333 450.986667a188.586667 188.586667 0 1 0 188.586667-188.586667 189.013333 189.013333 0 0 0-188.586667 188.586667z"  horiz-adv-x="1024" />

    
    <glyph glyph-name="zanting_huaban1" unicode="&#59015;" d="M305.92 767.573333h85.333333v-767.146666h-85.333333zM632.746667 767.573333h85.333333v-767.146666h-85.333333z"  horiz-adv-x="1024" />

    
    <glyph glyph-name="suoxiao_huaban1" unicode="&#59016;" d="M793.6 29.866667a64.853333 64.853333 0 0 0-45.226667 18.773333L597.333333 202.24a286.293333 286.293333 0 1 0 94.293334 85.333333l149.333333-149.76a64 64 0 0 0-47.36-107.946666z m-341.333333 588.8a167.68 167.68 0 1 1 167.253333-167.68 167.68 167.68 0 0 1-166.4 167.68zM453.12 640A189.013333 189.013333 0 1 1 640 450.986667 189.013333 189.013333 0 0 1 453.12 640zM853.333333 154.453333l-136.533333 137.386667a308.48 308.48 0 1 1-125.44-116.053333l142.08-142.08a85.333333 85.333333 0 0 1 120.746667 0 85.333333 85.333333 0 0 1-0.853334 120.746666z m-30.293333-90.453333a42.666667 42.666667 0 0 0-60.16 0L597.333333 229.12a266.24 266.24 0 1 0 62.72 57.6l162.56-162.56a42.666667 42.666667 0 0 0 1.28-60.16zM346.453333 480.853333h213.333334v-59.733333h-213.333334z"  horiz-adv-x="1024" />

    
    <glyph glyph-name="fangda_huaban1" unicode="&#59017;" d="M793.6 29.866667a64.853333 64.853333 0 0 0-45.226667 18.773333L597.333333 202.24a286.293333 286.293333 0 1 0 94.293334 85.333333l149.333333-149.76a64 64 0 0 0-47.36-107.946666z m-341.333333 588.8a167.68 167.68 0 1 1 167.253333-167.68 167.68 167.68 0 0 1-166.4 167.68zM453.12 640A189.013333 189.013333 0 1 1 640 450.986667 189.013333 189.013333 0 0 1 453.12 640zM853.333333 154.453333l-136.533333 137.386667a308.48 308.48 0 1 1-125.44-116.053333l142.08-142.08a85.333333 85.333333 0 0 1 120.746667 0 85.333333 85.333333 0 0 1-0.853334 120.746666z m-30.293333-90.453333a42.666667 42.666667 0 0 0-60.16 0L597.333333 229.12a266.24 266.24 0 1 0 62.72 57.6l162.56-162.56a42.666667 42.666667 0 0 0 1.28-60.16zM559.786667 480.853333h-76.8v76.8h-59.733334v-76.8h-76.8v-59.733333h76.8v-76.8h59.733334v76.8h76.8v59.733333z"  horiz-adv-x="1024" />

    


  </font>
</defs>
</svg>
